# xmcd
#
# Track frame offsets: 
#        150
#        21089
#        41217
#        59332
#        72971
#        94760
#        107061
#        132667
#        157270
#        181428
#        198606
#        216118
#        228740
#        241167
#        256965
#        270367
#        280593
#        301184
#        316648
#
# Disc length: 4401 seconds
#
# Revision: 0
# Processed by: cddbd v1.5.2PL0 Copyright (c) Steve Scherf et al.
# Submitted via: ExactAudioCopy v0.99pb5
#
DISCID=14112f13
DTITLE=Various Artist - Muzik Pleasure
DYEAR=1900
DGENRE=
TTITLE0=Wordz and Muzik - Beck Family
TTITLE1=Mistic Merlin - Just Can't Give You Up (Rahaan Edit)
TTITLE2=Love Affair (Rahaan Edit)
TTITLE3=Disco Explosion - Blue Notes
TTITLE4=Everybody Freek - Jisco
TTITLE5=Treasure Chest - Rising Love
TTITLE6=In The Mood - Puff
TTITLE7=Mfsb - Tosb (Rahaan Edit)
TTITLE8=Keep A Light In My Window - Nycc
TTITLE9=Rejoice - Bth Love
TTITLE10=Do Right - Bootleg Edit
TTITLE11=Express Yourself - Nycc
TTITLE12=Bruce Falls - Chuck Brothers Bruce Ivory
TTITLE13=Let Me Love You - Bunny Mack
TTITLE14=Doing Our Own Thing (Al Kent Edit)
TTITLE15=Bama Boogie - Cleavland Eaton
TTITLE16=Project Funk - Eazy
TTITLE17=See If You Like It - Cover Up
TTITLE18=Faster Than A Speeding Bullit - Ish
EXTD=
EXTT0=
EXTT1=
EXTT2=
EXTT3=
EXTT4=
EXTT5=
EXTT6=
EXTT7=
EXTT8=
EXTT9=
EXTT10=
EXTT11=
EXTT12=
EXTT13=
EXTT14=
EXTT15=
EXTT16=
EXTT17=
EXTT18=
PLAYORDER=
